<svg xmlns="http://www.w3.org/2000/svg" xmlns:xlink="http://www.w3.org/1999/xlink" width="169" height="173.953" viewBox="0 0 169 173.953">
  <defs>
    <filter id="Mask" x="0" y="4.953" width="169" height="169" filterUnits="userSpaceOnUse">
      <feOffset dy="5" input="SourceAlpha"/>
      <feGaussianBlur stdDeviation="7.5" result="blur"/>
      <feFlood flood-opacity="0.071"/>
      <feComposite operator="in" in2="blur"/>
      <feComposite in="SourceGraphic"/>
    </filter>
    <filter id="Mask-2" x="0" y="4.953" width="169" height="169" filterUnits="userSpaceOnUse">
      <feOffset dy="5" input="SourceAlpha"/>
      <feGaussianBlur stdDeviation="7.5" result="blur-2"/>
      <feFlood flood-opacity="0.071"/>
      <feComposite operator="in" in2="blur-2"/>
      <feComposite in="SourceGraphic"/>
    </filter>
    <clipPath id="clip-path">
      <g transform="matrix(1, 0, 0, 1, 0, 0)" filter="url(#Mask)">
        <circle id="Mask-3" data-name="Mask" cx="62" cy="62" r="62" transform="translate(0 0)" fill="#d8d8d8"/>
      </g>
    </clipPath>
  </defs>
  <g id="Component_82_1" data-name="Component 82 – 1" transform="translate(22.5)">
    <g id="IMG" transform="translate(0 22.453)">
      <g id="DEFAULT">
        <g transform="matrix(1, 0, 0, 1, -22.5, -22.45)" filter="url(#Mask-2)">
          <circle id="Mask-4" data-name="Mask" cx="62" cy="62" r="62" transform="translate(22.5 22.45)" fill="#fff"/>
        </g>
      </g>
    </g>
    <g id="Group_56" data-name="Group 56" transform="translate(-1708.163 -7894.59)">
      <circle id="Ellipse_70" data-name="Ellipse 70" cx="58.163" cy="58.163" r="58.163" transform="translate(1712 7920.766)" fill="#7474e2"/>
      <path id="Path_85" data-name="Path 85" d="M1917.639,8348.182v-23.23h-19.126v16.9c-.117,3.01.05,7.02.05,7.02s.865.077,2.279.229a62.187,62.187,0,0,0,6.484.354A40.238,40.238,0,0,0,1917.639,8348.182Z" transform="translate(-135.313 -312.291)" fill="#c156a0"/>
      <path id="Path_86" data-name="Path 86" d="M1910.648,8364.487a21.478,21.478,0,0,0,10.421-1.935v13.527a37.239,37.239,0,0,1-7.109.656c-2.86,0-6.916-.353-6.916-.353s-.027-1.634-.027-2.554v-9.809A17.435,17.435,0,0,0,1910.648,8364.487Z" transform="translate(-141.514 -339.576)" fill="#ff96ce"/>
      <path id="Path_87" data-name="Path 87" d="M1810.4,8084.5l31.253-4.414,31.253,4.414s.643,25.738.643,39.714c0,9.98-11.346,32.205-32.72,32.205-25.7,0-31.6-26.2-31.6-34.163C1809.231,8108.28,1810.4,8084.5,1810.4,8084.5Z" transform="translate(-70.555 -134.606)" fill="#c156a0"/>
      <path id="Path_88" data-name="Path 88" d="M1845.347,7979c2.36-7.256,5.875-17.035,6.817-24.606a19.607,19.607,0,0,0,.111-5.635,6.839,6.839,0,0,0-2.964-4.384,21.513,21.513,0,0,0,8.541-21.946,78.959,78.959,0,0,1-14.237,7.091,27.723,27.723,0,0,0,8.715-16.824c.808-6.4-1.155-12.708-4.684-18.105a113.776,113.776,0,0,1-26.166,25.719,15.418,15.418,0,0,0,2.219-10.84,14.46,14.46,0,0,0-5.5-9.18c-.163,4.394-3.51,8.146-7.421,10.154s-8.361,2.626-12.692,3.386-8.777,1.751-12.327,4.347-7.161,7.7-5.961,11.932c-10.074-.173-11.56,5.293-8.753,16.358s9.916,32.535,9.916,32.535l5.259-26.248s34.443,11.053,52.407,2.631Z" transform="translate(-41.934 0.001)" fill="#3d3d9b"/>
      <path id="Path_89" data-name="Path 89" d="M1991.388,8200.308a13.185,13.185,0,0,1,13.439-1.679c6.7,2.978,5.67,11.289,1.689,16.115a12.886,12.886,0,0,1-9.613,4.6,35.315,35.315,0,0,1-8.993-.92Z" transform="translate(-200.214 -219.787)" fill="#c156a0"/>
      <path id="Path_90" data-name="Path 90" d="M1800.552,8200.308a13.186,13.186,0,0,0-13.44-1.679c-6.7,2.978-5.67,11.289-1.689,16.115a12.885,12.885,0,0,0,9.613,4.6,35.317,35.317,0,0,0,8.993-.92Z" transform="translate(-50.983 -219.787)" fill="#c156a0"/>
      <path id="Path_91" data-name="Path 91" d="M1820.255,8123.443a23.1,23.1,0,0,0-2.929,7.352c-2.022,10.432-3.035,21.351-.182,31.586s10.2,19.714,20.392,22.716c8.232,2.424,17.476.289,24.356-4.841s11.459-13.007,13.4-21.366a54.219,54.219,0,0,0-.749-25.49c-.707-2.778-1.746-5.738-4.157-7.291-1.8-1.164-4.055-1.318-6.2-1.441C1860.143,8124.434,1822.973,8121.27,1820.255,8123.443Z" transform="translate(-75.017 -165.517)" fill="#f9b2db"/>
      <path id="Path_92" data-name="Path 92" d="M1958.8,8187.5a3.92,3.92,0,1,0,3.92-3.92A3.92,3.92,0,0,0,1958.8,8187.5Z" transform="translate(-179.091 -209.702)" fill="#292968"/>
      <path id="Path_93" data-name="Path 93" d="M1875.076,8187.192a4.035,4.035,0,1,1-4.035-4.035A4.035,4.035,0,0,1,1875.076,8187.192Z" transform="translate(-112.48 -209.398)" fill="#292968"/>
      <g id="Group_51" data-name="Group 51" transform="translate(1747.737 7964.95)">
        <g id="Group_50" data-name="Group 50" transform="translate(0 0)">
          <g id="Group_49" data-name="Group 49">
            <path id="Path_94" data-name="Path 94" d="M1842.259,8157.857l17.391-3.5S1853.384,8144.952,1842.259,8157.857Z" transform="translate(-1842.259 -8151.049)" fill="#292968"/>
          </g>
        </g>
      </g>
      <g id="Group_54" data-name="Group 54" transform="translate(1778.824 7964.95)">
        <g id="Group_53" data-name="Group 53" transform="translate(0 0)">
          <g id="Group_52" data-name="Group 52">
            <path id="Path_95" data-name="Path 95" d="M1972.963,8157.857l-17.391-3.5S1961.838,8144.952,1972.963,8157.857Z" transform="translate(-1955.572 -8151.049)" fill="#292968"/>
          </g>
        </g>
      </g>
      <path id="Path_96" data-name="Path 96" d="M1918.874,8216.771a.556.556,0,0,1-.4.018,1.058,1.058,0,0,1-.718-.538,2.483,2.483,0,0,1,.45-1.8l.028-.055a23.316,23.316,0,0,0,2.254-15.094.819.819,0,0,0-.928-.506c-.45.046-.765.342-.7.666a22.445,22.445,0,0,1-2.169,14.528l-.028.054a3.138,3.138,0,0,0-.5,2.508,2.48,2.48,0,0,0,1.776,1.357,3.079,3.079,0,0,0,.735.09,2.491,2.491,0,0,0,1.2-.287.49.49,0,0,0,.152-.829A1.052,1.052,0,0,0,1918.874,8216.771Z" transform="translate(-148.07 -220.74)" fill="#ffdef6"/>
      <path id="Path_97" data-name="Path 97" d="M1914.513,8289.116c-5.04,1.9-10.666,1.107-13.84-1.618,0,0-1.172,7.221,5.467,8.446C1912.521,8297.123,1914.513,8289.116,1914.513,8289.116Z" transform="translate(-136.852 -285.113)" fill="#ffeefb"/>
      <g id="Group_55" data-name="Group 55" transform="translate(1741.435 7900.409)">
        <path id="Path_98" data-name="Path 98" d="M1854.67,7934.845a29.407,29.407,0,0,1-15.589,10.19c-4.288,1.122-8.858,1.294-12.924,3.033s-7.649,5.807-6.722,10.044c3.962-2.615,9.489-4.476,14.062-5.841-1.295,1.735-4.925,5.7-5.187,9.1a66.212,66.212,0,0,1,15.622-10.219,83.01,83.01,0,0,0-13.816,15.982C1840.757,7957.14,1855.429,7941.111,1854.67,7934.845Z" transform="translate(-1819.288 -7929.62)" fill="#9693ff"/>
        <path id="Path_99" data-name="Path 99" d="M1908.574,7947.951l6.021-6.12a70.437,70.437,0,0,1-17.508,9.27c7.745-6.023,12.619-15.528,13.712-25.278a68.817,68.817,0,0,1-16.9,16.624c6.923-7.868,13.79-16.385,15.918-26.647-9.457,9.729-37.132,31.4-54.038,42.553a68.159,68.159,0,0,1,17.7-5.376l-15.5,10.458,16.476-3.721a28.7,28.7,0,0,1-13.266,8.3c21.967,2.641,45.009-7.843,57.45-26.139A29.48,29.48,0,0,1,1908.574,7947.951Z" transform="translate(-1845.769 -7915.798)" fill="#9693ff"/>
      </g>
      <path id="Path_100" data-name="Path 100" d="M1917.4,7946.509a67.866,67.866,0,0,1-15.373,20.57C1910.266,7963.371,1915.864,7955.412,1917.4,7946.509Z" transform="translate(-137.893 -37.675)" fill="#3d3d9b"/>
      <path id="Path_101" data-name="Path 101" d="M1946.244,8051.656a61.429,61.429,0,0,0,37.459-22.7,37.315,37.315,0,0,1-14.666,18.407C1962.363,8051.6,1954.122,8052.35,1946.244,8051.656Z" transform="translate(-169.979 -97.502)" fill="#3d3d9b"/>
      <path id="Path_102" data-name="Path 102" d="M1782.78,8035.512a9.922,9.922,0,0,0-1.154,7.565,29.45,29.45,0,0,0,2.933,7.27,13.971,13.971,0,0,1,.781-10.921,20.756,20.756,0,0,0,.526,6.885,6.43,6.43,0,0,1,3.452-5.919,35.469,35.469,0,0,0-.868,21.3,32.2,32.2,0,0,1,5.06-16.579,10.408,10.408,0,0,0,.5,4.328l1.1-3.439a8.447,8.447,0,0,0,6.355,5.358,113.816,113.816,0,0,1-7.825-11.8q-.9,1.89-1.809,3.781l.7-7.68-6.4,1.314,2.85-2.042-3.306.219a10.577,10.577,0,0,1,2.553-1.229,15.46,15.46,0,0,1,3.995-.5C1788.809,8032.262,1785.015,8032.23,1782.78,8035.512Z" transform="translate(-50.331 -100.224)" fill="#9693ff"/>
      <path id="Path_103" data-name="Path 103" d="M1933.49,7981.314a102.808,102.808,0,0,0,23.33-17.545C1953.584,7973.176,1943.434,7981.025,1933.49,7981.314Z" transform="translate(-160.724 -50.2)" fill="#eef"/>
      <path id="Path_104" data-name="Path 104" d="M1927.76,8023.015a58.25,58.25,0,0,0,24.31-14.28,29.118,29.118,0,0,1-12.322,13.568l8.454.167A32,32,0,0,1,1927.76,8023.015Z" transform="translate(-156.566 -82.829)" fill="#eef"/>
    </g>
  </g>
</svg>
