<?xml version="1.0" encoding="utf-8"?>
<!-- Generator: Adobe Illustrator 18.1.0, SVG Export Plug-In . SVG Version: 6.00 Build 0)  -->
<svg version="1.1" id="Layer_1" xmlns="http://www.w3.org/2000/svg" xmlns:xlink="http://www.w3.org/1999/xlink" x="0px" y="0px"
	 viewBox="0 0 500 500" enable-background="new 0 0 500 500" xml:space="preserve">
<g id="DID_Portfolio_Icon" display="none">
	<g display="inline">
		<g>
			
				<linearGradient id="SVGID_2_" gradientUnits="userSpaceOnUse" x1="0.1" y1="250.15" x2="500" y2="250.15" gradientTransform="matrix(1 0 0 -1 0 500)">
				<stop  offset="0" style="stop-color:#61F5E8"/>
				<stop  offset="1" style="stop-color:#6561FB"/>
			</linearGradient>
			<path id="SVGID_1_" fill="url(#SVGID_2_)" d="M500,107.3v285c0,59.2-48.4,107.7-107.6,107.7H107.7C48.5,500,0.1,451.6,0.1,392.3
				v-285C0.1,48.1,48.5-0.3,107.7-0.3h284.8C451.6-0.3,500,48.1,500,107.3"/>
		</g>
		<g>
			<defs>
				<path id="SVGID_3_" d="M500,107.3v285c0,59.2-48.4,107.7-107.6,107.7H107.7C48.5,500,0.1,451.6,0.1,392.3v-285
					C0.1,48.1,48.5-0.3,107.7-0.3h284.8C451.6-0.3,500,48.1,500,107.3"/>
			</defs>
			<clipPath id="SVGID_4_">
				<use xlink:href="#SVGID_3_"  overflow="visible"/>
			</clipPath>
			
				<linearGradient id="SVGID_5_" gradientUnits="userSpaceOnUse" x1="0.1" y1="250.15" x2="500" y2="250.15" gradientTransform="matrix(1 0 0 -1 0 500)">
				<stop  offset="0" style="stop-color:#61F5E8"/>
				<stop  offset="1" style="stop-color:#6561FB"/>
			</linearGradient>
			<rect x="0.1" y="-0.3" clip-path="url(#SVGID_4_)" fill="url(#SVGID_5_)" width="499.9" height="500.3"/>
		</g>
	</g>
	
		<linearGradient id="SVGID_6_" gradientUnits="userSpaceOnUse" x1="87.5879" y1="504.998" x2="181.7621" y2="341.8834" gradientTransform="matrix(1 0 0 -1 0 500)">
		<stop  offset="0" style="stop-color:#54E1EE;stop-opacity:0"/>
		<stop  offset="1" style="stop-color:#6561FB"/>
	</linearGradient>
	<path display="inline" fill="url(#SVGID_6_)" d="M130-0.3h195.4c0,0-3.7,132.6-145.9,132.6C29.4,132.3,0,173.8,0,250.5V119.2
		C0,8.7,91.7-0.3,108.6-0.3"/>
	<path display="inline" opacity="7.000000e-02" fill="#0463EE" enable-background="new    " d="M385.4,500H145.2
		c0,0,121.2-40.1,153-136.2C335.6,250.9,500,203.5,500,203.5v186.1C500,457.1,452.8,500,385.4,500"/>
	
		<linearGradient id="SVGID_7_" gradientUnits="userSpaceOnUse" x1="154.9" y1="148.25" x2="500" y2="148.25" gradientTransform="matrix(1 0 0 -1 0 500)">
		<stop  offset="0" style="stop-color:#61F5E8"/>
		<stop  offset="1" style="stop-color:#6561FB"/>
	</linearGradient>
	<path display="inline" fill="url(#SVGID_7_)" d="M388.6,500H154.9c0,0,117.9-40.1,148.8-136.2C340.1,250.9,500,203.5,500,203.5
		v186.1C500,457.1,454.1,500,388.6,500"/>
	<path display="inline" fill="#FFFFFF" d="M255.8,86.3C165.1,86.3,92,160.2,92,250.9v45.7c0,15.4,11.7,27.4,27,27.4s27-12,27-27.4
		v-45.7c0-60.7,49.3-110,110-110s110,49.4,110,110v45.7c0,15.4,11.7,27.4,27,27.4s27-12,27-27.4v-45.7
		C420,160.2,346.8,86.3,255.8,86.3z"/>
	<path display="inline" fill="#FFFFFF" d="M394.3,360.8c-35.3,0-64.3-28.8-64.3-64.2v-45.7c0-40.3-32.3-73.1-72.5-73.1
		S185,210.7,185,250.9v45.7c0,35.4-28.7,64.2-64,64.2c-15.3,0-27.3,12-27.3,27.4s11.7,27.4,27,27.4c65.4,0,118.3-53.3,118.3-118.9
		V251c0-10.4,8.2-18.5,18.5-18.5c10.3,0,18.5,8.1,18.5,18.5v45.7c0,65.6,53.4,118.9,118.8,118.9c15.3,0,27.2-12,27.2-27.4
		C422.1,372.8,410.1,361,394.3,360.8z"/>
</g>
<g id="DPoS_Voting_icon" display="none">
	<path display="inline" fill="none" d="M108.7,0.5h284C451.7,0.5,500,48.8,500,108v284.5c0,59.1-48.3,107.5-107.3,107.5h-284
		c-59,0-107.3-48.4-107.3-107.5V108C1.4,48.8,49.6,0.5,108.7,0.5"/>
	
		<linearGradient id="SVGID_9_" gradientUnits="userSpaceOnUse" x1="99.2149" y1="510.9175" x2="400.7758" y2="-11.4012" gradientTransform="matrix(1 0 0 -1 0 500)">
		<stop  offset="0" style="stop-color:#8FDFFF"/>
		<stop  offset="0.5275" style="stop-color:#A25BFE"/>
		<stop  offset="1" style="stop-color:#4E2AB5"/>
	</linearGradient>
	<path display="inline" fill="url(#SVGID_9_)" d="M108,0.5h284c59,0,107.3,48.4,107.3,107.5v284.5C499.3,451.6,451,500,392,500H108
		C49,500,0.7,451.6,0.7,392.5V108C0.7,48.8,49,0.5,108,0.5"/>
	<defs>
		<filter id="Adobe_OpacityMaskFilter" filterUnits="userSpaceOnUse" x="161.8" y="0.5" width="338.2" height="499.5">
			<feColorMatrix  type="matrix" values="1 0 0 0 0  0 1 0 0 0  0 0 1 0 0  0 0 0 1 0"/>
		</filter>
	</defs>
	<mask maskUnits="userSpaceOnUse" x="161.8" y="0.5" width="338.2" height="499.5" id="SVGID_8_" display="inline">
		<g filter="url(#Adobe_OpacityMaskFilter)">
			
				<linearGradient id="SVGID_10_" gradientUnits="userSpaceOnUse" x1="298.4567" y1="2940.3083" x2="298.4567" y2="1196.6226" gradientTransform="matrix(4.489659e-11 1 1 -4.489659e-11 -1343.8616 -48.2067)">
				<stop  offset="0" style="stop-color:#FFFFFF"/>
				<stop  offset="1" style="stop-color:#000000"/>
			</linearGradient>
			<rect x="161.7" y="0.5" fill="url(#SVGID_10_)" width="338.3" height="499.5"/>
		</g>
	</mask>
	
		<linearGradient id="SVGID_11_" gradientUnits="userSpaceOnUse" x1="161.7753" y1="249.75" x2="500" y2="249.75" gradientTransform="matrix(1 0 0 -1 0 500)">
		<stop  offset="0" style="stop-color:#8FDFFF"/>
		<stop  offset="0.5275" style="stop-color:#A25BFE"/>
	</linearGradient>
	<path display="inline" mask="url(#SVGID_8_)" fill="url(#SVGID_11_)" d="M500,108v284.5c0,59.1-48.3,107.5-107.3,107.5h-142
		c-76.1,0-104.8-64.6-80.5-125.4C212.6,268,323.9,198,341.8,100.3C353.3,37.6,307.3,0.5,249,0.5h143.8C451.7,0.5,500,48.8,500,108"
		/>
	<ellipse display="inline" fill="#FFFFFF" cx="339.5" cy="62.8" rx="12.9" ry="13"/>
	<ellipse display="inline" fill="#FFFFFF" cx="360.2" cy="119" rx="5.1" ry="5.1"/>
	<ellipse display="inline" fill="#FFFFFF" cx="413.3" cy="85" rx="25.7" ry="25.7"/>
	<path display="inline" fill="#FFFFFF" d="M101.2,340.1c0,41.9,33.9,75.9,75.8,75.9c36.4,0,66.7-25.7,74.1-59.9
		c13.8-5.2,60.3-4.9,81.1,1.6c7.2,20.5,26.7,35.2,49.7,35.2c29.1,0,52.7-23.6,52.7-52.8c0-29.1-23.6-52.8-52.7-52.8
		c-21.9,0-40.8,13.5-48.7,32.6c-17.3,11.1-65.3,9.8-82,4.6c-1.8-8.8-5.2-17-9.8-24.4c4.2-5.8,30.4-42.4,50.1-48
		c6.7,3.1,14.1,4.8,22,4.8c29.1,0,52.7-23.6,52.7-52.8c0-29.1-23.6-52.8-52.7-52.8s-52.7,23.6-52.7,52.8c0,7.6,1.6,14.8,4.5,21.4
		c-3,16.1-35.4,44.9-45.9,51.6c-7.6-5.2-16.3-9-25.5-11.1c-3.4-15.8-5.4-66.5,5.2-80.4c18.6-8.1,31.6-26.7,31.6-48.4
		c0-29.1-23.6-52.8-52.7-52.8s-52.7,23.6-52.7,52.8c0,21.9,13.3,40.7,32.3,48.7c8.7,12.1,7.4,72.5,3.1,80
		C126.7,273.3,101.2,303.7,101.2,340.1z"/>
	
		<linearGradient id="SVGID_12_" gradientUnits="userSpaceOnUse" x1="208.2136" y1="271.1148" x2="360.838" y2="271.1148" gradientTransform="matrix(0.5336 -0.8457 -0.8457 -0.5336 254.3172 725.9772)">
		<stop  offset="0" style="stop-color:#C735F7;stop-opacity:0.1"/>
		<stop  offset="5.501026e-02" style="stop-color:#CC47F8;stop-opacity:9.448933e-02"/>
		<stop  offset="0.238" style="stop-color:#DB7FFA;stop-opacity:7.615884e-02"/>
		<stop  offset="0.416" style="stop-color:#E8ADFC;stop-opacity:5.832230e-02"/>
		<stop  offset="0.5851" style="stop-color:#F2D0FD;stop-opacity:4.138687e-02"/>
		<stop  offset="0.7429" style="stop-color:#F9EAFE;stop-opacity:2.558223e-02"/>
		<stop  offset="0.8851" style="stop-color:#FDFAFF;stop-opacity:1.133557e-02"/>
		<stop  offset="0.9982" style="stop-color:#FFFFFF;stop-opacity:0"/>
	</linearGradient>
	<path display="inline" fill="url(#SVGID_12_)" d="M217.5,276.1c35.6,22.5,46.3,69.7,23.8,105.3s-69.5,46.3-105.2,23.8
		S89.9,335.6,112.4,300S181.9,253.6,217.5,276.1z"/>
</g>
<g id="Wallet_Icon" display="none">
	<g display="inline">
		<path fill="#60A9E0" d="M412.7,6.5"/>
	</g>
	
		<linearGradient id="SVGID_13_" gradientUnits="userSpaceOnUse" x1="249.8" y1="39.0251" x2="249.8" y2="467.4639" gradientTransform="matrix(1 0 0 -1 0 500)">
		<stop  offset="0" style="stop-color:#C71BF7"/>
		<stop  offset="0.219" style="stop-color:#CB20F7"/>
		<stop  offset="0.4838" style="stop-color:#D72FF6"/>
		<stop  offset="0.771" style="stop-color:#EA47F4"/>
		<stop  offset="1" style="stop-color:#FE60F2"/>
	</linearGradient>
	<path display="inline" fill="url(#SVGID_13_)" d="M108.4,0.7h282.7c20.4,0,39.5,5.8,55.8,15.9c30.5,19,51,53,51,91.6v284.6
		c0,59.1-48.1,107.5-106.8,107.5H108.4C49.7,500.4,1.7,452,1.7,392.8V108.2C1.7,49.1,49.7,0.7,108.4,0.7"/>
	<path display="inline" opacity="0.19" fill="#C735F7" enable-background="new    " d="M497.4,399.6l0.1-70.7
		c0,0-109,49.4-185.7-32.7c-60.8-65-170.5-117.5-291.1-24.4C13.9,277,1.3,288,1.3,288s-0.2,60.3-0.2,104.8c0,17.5,7.2,38.9,24,62.8
		c29.2,41.7,74.2,44.7,74.2,44.7h291.2c0,0,48.6,0.3,78.5-34.2C495.2,436.1,497.4,399.6,497.4,399.6z"/>
	
		<linearGradient id="SVGID_14_" gradientUnits="userSpaceOnUse" x1="1239.6694" y1="-1785.3661" x2="1739.8694" y2="-1785.3661" gradientTransform="matrix(4.489659e-11 1 1 -4.489659e-11 2147.9661 -1239.2694)">
		<stop  offset="0" style="stop-color:#C71BF7"/>
		<stop  offset="0.219" style="stop-color:#CB20F7"/>
		<stop  offset="0.4838" style="stop-color:#D72FF6"/>
		<stop  offset="0.771" style="stop-color:#EA47F4"/>
		<stop  offset="1" style="stop-color:#FE60F2"/>
	</linearGradient>
	<path display="inline" opacity="0.32" fill="url(#SVGID_14_)" enable-background="new    " d="M460.2,26.2
		c-32.7-25.8-65-25.6-65-25.6l-89.5-0.2c0,0,0.7,94.2,28.9,162.7c105.8,257.4-107.3,337.5-107.3,337.5h166.3c0,0,42.4-1.6,72.4-31.8
		c27.7-27.9,31.1-63,31.1-63l0.8-301.1C497.7,104.7,498,56,460.2,26.2z"/>
	
		<linearGradient id="SVGID_15_" gradientUnits="userSpaceOnUse" x1="1.1" y1="135.5781" x2="497.5" y2="135.5781" gradientTransform="matrix(1 0 0 -1 0 500)">
		<stop  offset="0" style="stop-color:#FE60F2"/>
		<stop  offset="0.7924" style="stop-color:#C71BF7"/>
	</linearGradient>
	<path display="inline" fill="url(#SVGID_15_)" d="M497.4,402.3l0.1-69.1c0,0-109,48.2-185.7-31.9C251,237.8,141.3,186.5,20.7,277.5
		c-6.8,5.1-19.4,15.8-19.4,15.8s-0.2,58.9-0.2,102.3c0,17.1,7.2,38,24,61.4c29.2,40.7,74.2,43.6,74.2,43.6h291.2
		c0,0,48.6,0.3,78.5-33.4C495.2,437.9,497.4,402.3,497.4,402.3z"/>
	
		<linearGradient id="SVGID_16_" gradientUnits="userSpaceOnUse" x1="232.6" y1="250.1" x2="498.4112" y2="250.1" gradientTransform="matrix(1 0 0 -1 0 500)">
		<stop  offset="0" style="stop-color:#FE60F2"/>
		<stop  offset="1" style="stop-color:#C71BF7"/>
	</linearGradient>
	<path display="inline" fill="url(#SVGID_16_)" d="M461.5,25.5C429.4-0.3,397.6,0,397.6,0l-88-0.2c0,0,0.7,94.2,28.4,162.7
		C442.1,419.9,232.6,500,232.6,500H396c0,0,41.6-1.6,71.1-31.8c27.2-27.9,30.5-63,30.5-63l0.8-301.1
		C498.5,104.1,498.7,55.4,461.5,25.5z"/>
	<path id="XMLID_4_" display="inline" fill="#EFEFEE" d="M247.2,217.7c-8.4-8.5-22.1-8.5-30.6,0c-8.4,8.5-8.4,22.4,0,30.9
		c8.4,8.5,22.1,8.5,30.6,0C255.7,240,255.7,226.2,247.2,217.7z"/>
	<path display="inline" fill="#FFFFFF" d="M410.6,288.1h-94c-10.7,0-19.4-8.8-19.4-19.6v-36.8c0-10.9,8.7-19.7,19.4-19.7h94
		c1.5,0,2.9,0.2,4.3,0.5v-41.3c0-12.9-10.4-23.4-23.2-23.4H131.1c-12.8,0-23.2,10.5-23.2,23.4V329c0,12.9,10.4,23.4,23.2,23.4h260.7
		c12.8,0,23.2-10.5,23.2-23.4v-41.3C413.5,288,412.1,288.1,410.6,288.1z"/>
	<path id="XMLID_2_" display="inline" fill="#FFFFFF" d="M366.3,250.1c0,11.9-9.6,21.6-21.4,21.6s-21.4-9.7-21.4-21.6
		c0-12,9.6-21.6,21.4-21.6C356.7,228.5,366.3,238.2,366.3,250.1z"/>
</g>
<g id="DApp_Store_Icon" display="none">
	
		<linearGradient id="SVGID_17_" gradientUnits="userSpaceOnUse" x1="0.7" y1="249.95" x2="499.7" y2="249.95" gradientTransform="matrix(1 0 0 -1 0 500)">
		<stop  offset="0" style="stop-color:#FBD153"/>
		<stop  offset="1" style="stop-color:#FA5085"/>
	</linearGradient>
	<path display="inline" fill="url(#SVGID_17_)" d="M108.1,0.3h284.2c59.1,0,107.4,48.4,107.4,107.5v284.5
		c0,59.1-48.3,107.5-107.4,107.5H108.1C49,499.7,0.7,451.3,0.7,392.2V107.8C0.7,48.7,49,0.3,108.1,0.3"/>
	<ellipse display="inline" fill="#FFFFFF" cx="249.8" cy="230.1" rx="46.2" ry="46.3"/>
	
		<linearGradient id="SVGID_18_" gradientUnits="userSpaceOnUse" x1="221.2522" y1="249.05" x2="499.7001" y2="249.05" gradientTransform="matrix(1 0 0 -1 0 500)">
		<stop  offset="0" style="stop-color:#EFC539"/>
		<stop  offset="1" style="stop-color:#DA0D6A"/>
	</linearGradient>
	<path display="inline" opacity="0.38" fill="url(#SVGID_18_)" enable-background="new    " d="M399.1,1.3l-70.6-0.1
		c0,0,49.3,109.7-32.6,186.9C231,249.3,178.6,359.7,271.6,481c5.2,6.8,16.2,19.5,16.2,19.5s60.2,0.2,104.6,0.2
		c17.5,0,38.9-7.3,62.7-24.2c41.6-29.4,44.6-74.7,44.6-74.7V108.7c0,0,0.3-48.9-34.1-79C435.6,3.5,399.1,1.3,399.1,1.3z"/>
	
		<linearGradient id="SVGID_19_" gradientUnits="userSpaceOnUse" x1="46.7" y1="72.6862" x2="452" y2="72.6862" gradientTransform="matrix(1 0 0 -1 0 500)">
		<stop  offset="0" style="stop-color:#FA5085"/>
		<stop  offset="1" style="stop-color:#FBC159"/>
	</linearGradient>
	<path display="inline" opacity="0.15" fill="url(#SVGID_19_)" enable-background="new    " d="M452,481.1c0,0-12.4-45.4-91.3-92.1
		c-192-113.7-314,91.1-314,91.1S72.6,500,105.5,500c75.6,0,188.4,0,282.1,0C427.2,500,452,481.1,452,481.1z"/>
	
		<linearGradient id="SVGID_20_" gradientUnits="userSpaceOnUse" x1="227.9586" y1="249.05" x2="499.9001" y2="249.05" gradientTransform="matrix(1 0 0 -1 0 500)">
		<stop  offset="0" style="stop-color:#FBD153"/>
		<stop  offset="1" style="stop-color:#FA5085"/>
	</linearGradient>
	<path display="inline" fill="url(#SVGID_20_)" d="M401.8,1.3l-69-0.1c0,0,48.1,109.7-31.9,186.9c-63.4,61.2-114.6,171.6-23.8,292.9
		c5.1,6.8,15.8,19.5,15.8,19.5s58.8,0.2,102.1,0.2c17.1,0,37.9-7.3,61.3-24.2c40.6-29.4,43.6-74.7,43.6-74.7V108.7
		c0,0,0.3-48.9-33.3-79C437.4,3.5,401.8,1.3,401.8,1.3z"/>
	
		<linearGradient id="SVGID_21_" gradientUnits="userSpaceOnUse" x1="0.5" y1="366.05" x2="500" y2="366.05" gradientTransform="matrix(1 0 0 -1 0 500)">
		<stop  offset="0" style="stop-color:#FBD153"/>
		<stop  offset="1" style="stop-color:#FA5085"/>
	</linearGradient>
	<path display="inline" fill="url(#SVGID_21_)" d="M26.2,37.3C0.5,69.7,0.7,101.7,0.7,101.7l-0.2,88.5c0,0,94-0.7,162.5-28.6
		C420,56.9,500,267.7,500,267.7V103.3c0,0-1.6-41.9-31.8-71.6C440.4,4.4,405.3,1,405.3,1L104.7,0.2C104.7,0.2,56-0.1,26.2,37.3z"/>
	
		<linearGradient id="SVGID_22_" gradientUnits="userSpaceOnUse" x1="306.1773" y1="183.648" x2="175.0168" y2="410.8245" gradientTransform="matrix(1 0 0 -1 0 500)">
		<stop  offset="9.531493e-02" style="stop-color:#CCCCCC"/>
		<stop  offset="0.3852" style="stop-color:#E6E6E6"/>
		<stop  offset="0.9974" style="stop-color:#FFFFFF"/>
	</linearGradient>
	<path display="inline" fill="url(#SVGID_22_)" d="M329.1,264l3.3-7.7c4-9.9,6-20.9,6-33.1c0-49-39.8-88.8-88.8-88.8
		s-88.8,39.9-88.8,88.9c0,12.3,2,23.1,6,32.9l3.3,7.7H102l-1-4.2c-2.7-12.5-4.1-24.9-4.1-37.2c0-84.3,68.5-152.8,152.7-152.8
		s152.7,68.6,152.7,152.9c0,12.3-1.4,24.5-4.1,37l-1,4.2h-68.1V264z"/>
	
		<linearGradient id="SVGID_23_" gradientUnits="userSpaceOnUse" x1="376.3289" y1="380.9246" x2="204.6425" y2="83.555" gradientTransform="matrix(1 0 0 -1 0 500)">
		<stop  offset="4.265409e-02" style="stop-color:#FFFFFF"/>
		<stop  offset="0.5441" style="stop-color:#FFFFFF"/>
		<stop  offset="0.7954" style="stop-color:#E6E6E6"/>
	</linearGradient>
	<path display="inline" fill="url(#SVGID_23_)" d="M249.6,435.3c-10.1,0-20-3.4-28-9.5c-7-5.4-17.7-14.4-23.5-19.3
		c-3.9-3.3-7.5-6.4-10-8.6c-5.5-4.8-7.1-5.6-5.8-9.5l1.4-3.5h4.2c2,0,3.4,0.5,3.8,0.8c5.6,4.3,12.2,6.2,19.2,6.2s13.6-2.4,19.2-6.7
		c19.4-14.9,47.4-39.4,70.7-70.9c27.5-37.2,41.4-75,41.4-112.3c0-46-11.5-82.4-34.1-108.3l-20.9-19.3c0,0,111.2,22.5,115.2,148.2
		c1,31-8.5,62.5-25.1,93.6c-13.1,24.4-31.2,48.5-53.9,71.6c-13.4,13.7-26.4,23.4-37.9,32c-2.7,2-5.3,4-7.8,5.9
		C269.7,431.9,259.7,435.3,249.6,435.3z"/>
	
		<linearGradient id="SVGID_25_" gradientUnits="userSpaceOnUse" x1="204.3643" y1="81.5769" x2="376.8974" y2="380.4131" gradientTransform="matrix(-1 0 0 -1 500 500)">
		<stop  offset="6.373801e-02" style="stop-color:#FFFFFF"/>
		<stop  offset="0.3269" style="stop-color:#FFFFFF"/>
		<stop  offset="0.7472" style="stop-color:#E6E6E6"/>
	</linearGradient>
	<path display="inline" fill="url(#SVGID_25_)" d="M249.6,437.9c-10.1,0-20-3.4-28-9.5c-21.4-16.4-52.3-43.4-78-78.2
		c-31-42-48.1-84.9-46.7-127.4C100.8,98.5,212.1,74.6,212.1,74.6l-20.9,19.3c-22.6,25.9-34.1,62.4-34.1,108.3
		c0,37.3,13.9,75,41.4,112.2c23.2,31.5,51.3,55.8,70.7,70.8c27.6,21.2,54.9,1.9,54.9,1.9c-14.2,14.6-29.8,28.4-46.4,41.2
		C269.7,434.5,259.7,437.9,249.6,437.9z"/>
</g>
<g id="Friends_Icon" display="none">
	<g display="inline">
		<g>
			
				<linearGradient id="SVGID_26_" gradientUnits="userSpaceOnUse" x1="0" y1="250" x2="500" y2="250" gradientTransform="matrix(1 0 0 -1 0 500)">
				<stop  offset="0" style="stop-color:#8DFFBA"/>
				<stop  offset="1" style="stop-color:#3ABAFB"/>
			</linearGradient>
			<path id="SVGID_24_" fill="url(#SVGID_26_)" d="M500,107.6v284.8c0,59.2-48.4,107.6-107.6,107.6H107.6C48.4,500,0,451.6,0,392.4
				V107.6C0,48.4,48.4,0,107.6,0h284.8C451.6,0,500,48.4,500,107.6"/>
		</g>
		<g>
			<defs>
				<path id="SVGID_27_" d="M500,107.6v284.8c0,59.2-48.4,107.6-107.6,107.6H107.6C48.4,500,0,451.6,0,392.4V107.6
					C0,48.4,48.4,0,107.6,0h284.8C451.6,0,500,48.4,500,107.6"/>
			</defs>
			<clipPath id="SVGID_28_">
				<use xlink:href="#SVGID_27_"  overflow="visible"/>
			</clipPath>
			
				<linearGradient id="SVGID_29_" gradientUnits="userSpaceOnUse" x1="164.3196" y1="1712.6779" x2="590.1311" y2="2159.7224" gradientTransform="matrix(4.489659e-11 1 1 -4.489659e-11 -1686.2078 -127.2327)">
				<stop  offset="0" style="stop-color:#8DFFBA"/>
				<stop  offset="1" style="stop-color:#3ABAFB"/>
			</linearGradient>
			<rect clip-path="url(#SVGID_28_)" fill="url(#SVGID_29_)" width="500" height="500"/>
		</g>
	</g>
	
		<linearGradient id="SVGID_31_" gradientUnits="userSpaceOnUse" x1="250.2" y1="93.5" x2="250.2" y2="243" gradientTransform="matrix(1 0 0 -1 0 500)">
		<stop  offset="0" style="stop-color:#FFFFFF;stop-opacity:0"/>
		<stop  offset="1" style="stop-color:#000000"/>
	</linearGradient>
	
		<rect x="0.4" y="257" display="inline" opacity="0.24" fill="url(#SVGID_31_)" enable-background="new    " width="499.6" height="149.5"/>
	
		<linearGradient id="SVGID_32_" gradientUnits="userSpaceOnUse" x1="836.9421" y1="-1050.6335" x2="836.9421" y2="-900.7335" gradientTransform="matrix(4.489659e-11 -1 -1 -4.489659e-11 -652.8335 1086.6921)">
		<stop  offset="0" style="stop-color:#FFFFFF;stop-opacity:0"/>
		<stop  offset="1" style="stop-color:#000000"/>
	</linearGradient>
	
		<rect x="247.9" y="0.6" display="inline" opacity="0.28" fill="url(#SVGID_32_)" enable-background="new    " width="149.9" height="498.3"/>
	<path display="inline" fill="#FFFFFF" d="M254.7,250.5c30.9,0,56.1-25.1,56.1-55.9s-25.2-55.9-56.1-55.9s-56.1,25.1-56.1,55.9
		S223.8,250.5,254.7,250.5z M268.7,234.1c-0.8,0.3-1.6,0.6-2.5,0.8L268.7,234.1z"/>
	<path display="inline" fill="#FFFFFF" d="M299.7,253.5c-3.2-1.4-7-0.2-8.8,2.8c-7.7,12.9-21.2,20.7-36.2,20.7s-28.5-7.7-36.2-20.7
		c-1.8-3-5.6-4.3-8.8-2.8c-41.1,17.9-67.7,58.4-67.7,103.1c0,3.9,3.1,7,7,7h211.4c3.9,0,7-3.1,7-7
		C367.4,311.8,340.9,271.4,299.7,253.5z"/>
</g>
<g id="QR_Scanner_Icon">
	<defs>
		<filter id="Adobe_OpacityMaskFilter_1_" filterUnits="userSpaceOnUse" x="138.8" y="2.9" width="335" height="493.1">
			<feColorMatrix  type="matrix" values="1 0 0 0 0  0 1 0 0 0  0 0 1 0 0  0 0 0 1 0"/>
		</filter>
	</defs>
	<mask maskUnits="userSpaceOnUse" x="138.8" y="2.9" width="335" height="493.1" id="SVGID_30_">
		<g filter="url(#Adobe_OpacityMaskFilter_1_)">
			
				<linearGradient id="SVGID_33_" gradientUnits="userSpaceOnUse" x1="297.6567" y1="2903.3711" x2="297.6567" y2="1176.775" gradientTransform="matrix(4.489659e-11 1 1 -4.489659e-11 -1343.8616 -48.2067)">
				<stop  offset="0" style="stop-color:#FFFFFF"/>
				<stop  offset="1" style="stop-color:#000000"/>
			</linearGradient>
			<rect x="138.9" y="2.9" fill="url(#SVGID_33_)" width="335" height="493.1"/>
		</g>
	</mask>
	<path mask="url(#SVGID_30_)" fill="#66E4FA" d="M473.8,109v280.9c0,58.4-47.8,106.1-106.2,106.1H226.9
		c-75.4,0-103.8-63.8-79.8-123.8c42.2-105.2,152.3-174.3,170-270.7C328.5,39.6,283,2.9,225.2,2.9h142.4
		C426,2.9,473.8,50.7,473.8,109"/>
	
		<linearGradient id="SVGID_34_" gradientUnits="userSpaceOnUse" x1="0.4" y1="250.5" x2="500" y2="250.5" gradientTransform="matrix(1 0 0 -1 0 500)">
		<stop  offset="5.253233e-03" style="stop-color:#FF6BCC"/>
		<stop  offset="1" style="stop-color:#FA5085"/>
	</linearGradient>
	<path fill="url(#SVGID_34_)" d="M389.3,0H111.1C50,0,0.4,49.5,0.4,110.6v277.8C0.4,449.5,50,499,111.1,499h278.2
		c61.1,0,110.7-49.5,110.7-110.6V110.6C500,49.5,450.4,0,389.3,0z"/>
	<path fill="#FFFFFF" d="M108,108v132h131V108H108z M203,204h-60v-58h60V204z"/>
	<path fill="#FFFFFF" d="M108,265v130h131V265H108z M203,359h-60v-59h60V359z"/>
	<g id="Rectangle_142_1_">
		<rect x="261.8" y="361.9" fill="#FFFFFF" width="36" height="35.9"/>
	</g>
	<polygon fill="#FFFFFF" points="357.7,326 357.7,361.9 321.7,361.9 321.7,397.9 393.7,397.9 393.7,385.9 393.7,361.9 393.7,326 	
		"/>
	<polygon fill="#FFFFFF" points="297.7,266.1 297.7,302 261.8,302 261.8,338 333.7,338 333.7,326 333.7,302 333.7,266.1 	"/>
	<g id="Rectangle_143_1_">
		<rect x="357.7" y="266.2" fill="#FFFFFF" width="36" height="35.9"/>
	</g>
	<g opacity="7.000000e-02">
	</g>
	
		<linearGradient id="SVGID_35_" gradientUnits="userSpaceOnUse" x1="1148.1022" y1="-275.3847" x2="1495.3021" y2="-275.3847" gradientTransform="matrix(4.489659e-11 -1 -1 -4.489659e-11 75.6653 1495.7021)">
		<stop  offset="5.253233e-03" style="stop-color:#FF6BCC"/>
		<stop  offset="1" style="stop-color:#FA5085"/>
	</linearGradient>
	<path fill="url(#SVGID_35_)" d="M500,112.5v235.1c0,0-40.3-118.7-136.9-149.8c-113.4-36.5-161-197.4-161-197.4h187
		C456.9,0.4,500,46.6,500,112.5"/>
	<path fill="#FFFFFF" d="M263,108v132h131V108H263z M360,204h-61v-58h61V204z"/>
</g>
<g id="Block_Explorer_Icon" display="none">
	<g display="inline">
		<g>
			<defs>
				<path id="SVGID_36_" d="M500,107.6v284c0,59-48.5,107.3-107.7,107.3H107.1c-59.3,0-107.7-48.3-107.7-107.3v-284
					c0-59,48.5-107.3,107.7-107.3h285.2C451.5,0.4,500,48.6,500,107.6"/>
			</defs>
			<clipPath id="SVGID_38_">
				<use xlink:href="#SVGID_36_"  overflow="visible"/>
			</clipPath>
			
				<linearGradient id="SVGID_39_" gradientUnits="userSpaceOnUse" x1="164.1439" y1="1712.5083" x2="589.6461" y2="2159.228" gradientTransform="matrix(4.489659e-11 1 1 -4.489659e-11 -1686.2078 -127.2327)">
				<stop  offset="0" style="stop-color:#114FED"/>
				<stop  offset="1" style="stop-color:#15AFF7"/>
			</linearGradient>
			<rect x="-0.6" y="0.4" clip-path="url(#SVGID_38_)" fill="url(#SVGID_39_)" width="500.6" height="498.6"/>
		</g>
	</g>
	<defs>
		<filter id="Adobe_OpacityMaskFilter_2_" filterUnits="userSpaceOnUse" x="160.4" y="0.4" width="339.6" height="498.5">
			<feColorMatrix  type="matrix" values="1 0 0 0 0  0 1 0 0 0  0 0 1 0 0  0 0 0 1 0"/>
		</filter>
	</defs>
	<mask maskUnits="userSpaceOnUse" x="160.4" y="0.4" width="339.6" height="498.5" id="SVGID_37_" display="inline">
		<g filter="url(#Adobe_OpacityMaskFilter_2_)">
			
				<linearGradient id="SVGID_40_" gradientUnits="userSpaceOnUse" x1="297.9067" y1="2944.6785" x2="297.9067" y2="1194.0369" gradientTransform="matrix(4.489659e-11 1 1 -4.489659e-11 -1343.8616 -48.2067)">
				<stop  offset="0" style="stop-color:#FFFFFF"/>
				<stop  offset="1" style="stop-color:#000000"/>
			</linearGradient>
			<rect x="160.4" y="0.4" fill="url(#SVGID_40_)" width="339.6" height="498.6"/>
		</g>
	</mask>
	<path display="inline" mask="url(#SVGID_37_)" fill="#66E4FA" d="M500,107.6v284c0,59-48.5,107.3-107.7,107.3H249.7
		c-76.4,0-105.2-64.5-80.9-125.2C211.5,267.4,323.2,197.5,341.1,100c11.5-62.6-34.6-99.6-93.2-99.6h144.3
		C451.5,0.4,500,48.6,500,107.6"/>
	<path display="inline" fill="#FFFFFF" d="M298.4,165.4c0,0-31.3,1.4-52.2-5.3l28.8,28.6V291h126.1V165.4H298.4z"/>
	<path display="inline" fill="#FFFFFF" d="M196.2,344.4c0,0,31.3-1.4,52.2,5.3L219.6,321V218.7H93.5v125.6L196.2,344.4z"/>
	<path display="inline" fill="#FFFFFF" d="M246.2,160.1c21.1,7.3,52.4,5.5,52.4,5.5l-29-28.9V74.9h-85.5v23.4v61.8h58H246.2z"/>
	<path display="inline" fill="#FFFFFF" d="M248.4,349.6c-20.9-6.9-52.4-5.3-52.4-5.3l28.9,28.6v61.8h85.5v-23.4v-61.8h-58
		L248.4,349.6L248.4,349.6z"/>
</g>
<g id="Layer_8" display="none">
</g>
</svg>
